/* XPM */
static char *_1312_ca9fd57d2e18ba82b10587aa48fe118bc7cf697023e0ff57e1e469aa1a340caa[] = {
/* columns rows colors chars-per-pixel */
"128 128 69 1 ",
"  c #3CBFF0",
". c #3DC0F0",
"X c #3EC1F0",
"o c #3FC1F1",
"O c #3FC2F1",
"+ c #40C2F1",
"@ c #40C3F1",
"# c #41C4F1",
"$ c #42C4F1",
"% c #42C5F1",
"& c #43C5F1",
"* c #44C6F2",
"= c #45C7F2",
"- c #46C8F2",
"; c #47C9F2",
": c #48CAF2",
"> c #49CBF3",
", c #4ACCF3",
"< c #4BCCF3",
"1 c #4CCDF3",
"2 c #4CCEF3",
"3 c #4DCEF3",
"4 c #4ECFF3",
"5 c #4ED0F4",
"6 c #4FD0F4",
"7 c #50D1F4",
"8 c #51D2F4",
"9 c #55D4F4",
"0 c #5AD7F4",
"q c #5ED9F5",
"w c #63DBF5",
"e c #67DEF5",
"r c #6BE0F5",
"t c #70E2F5",
"y c #74E5F6",
"u c #78E7F6",
"i c #7DE9F6",
"p c #81EBF6",
"a c #86EEF6",
"s c #84F4F4",
"d c #85F4F4",
"f c #86F4F4",
"g c #8AF0F6",
"h c #8EF2F7",
"j c #88F5F5",
"k c #89F5F5",
"l c #8AF5F5",
"z c #8BF5F5",
"x c #8CF5F5",
"c c #8CF5F6",
"v c #8EF6F6",
"b c #8FF6F6",
"n c #93F5F7",
"m c #90F6F6",
"M c #91F6F6",
"N c #92F6F6",
"B c #93F6F6",
"V c #92F6F7",
"C c #94F7F7",
"Z c #95F7F7",
"A c #96F7F7",
"S c #97F7F7",
"D c #97F7F8",
"F c #99F7F8",
"G c #9BF8F9",
"H c #9DF8F9",
"J c #9FF8F9",
"K c #A3F9FA",
"L c None",
/* pixels */
"LLLLLLLLLLLLLLLLLLLLLLLLLLLLLLLLLLLLLLLLLLLLLLLLLLLLLLLLLLLLLKKKKKKKKKKKKKKKKKKKKKLLLLLLLLLLLLLLLLLLLLLLLLLLLLLLLLLLLLLLLLLLLLLL",
"LLLLLLLLLLLLLLLLLLLLLLLLLLLLLLLLLLLLLLLLLLLLLLLLLLLLLLLKKKKKKKKKKKKKKKKKKKKKKKKKKKKKKKKKLLLLLLLLLLLLLLLLLLLLLLLLLLLLLLLLLLLLLLLL",
"LLLLLLLLLLLLLLLLLLLLLLLLLLLLLLLLLLLLLLLLLLLLLLLLLLKKKKKKKKKKKKKKKKKKKKKKKKKKKKKKKKKKKKKKKKKKLLLLLLLLLLLLLLLLLLLLLLLLLLLLLLLLLLLL",
"LLLLLLLLLLLLLLLLLLLLLLLLLLLLLLLLLLLLLLLLLLLLLLKKKKKKKKKKKKKKKKKKKKKKKKKKKKKKKKKKKKKKKKKKKKKKKKKKLLLLLLLLLLLLLLLLLLLLLLLLLLLLLLLL",
"LLLLLLLLLLLLLLLLLLLLLLLLLLLLLLLLLLLLLLLLLLKKKKKKKKKKKKKKKKKKKKKKKKKKKKKKKKKKKKKKKKKKKKKKKKKKKKKKKKKKLLLLLLLLLLLLLLLLLLLLLLLLLLLL",
"LLLLLLLLLLLLLLLLLLLLLLLLLLLLLLLLLLLLLLLKKKKKKKKKKKKKKKKKKKKKKKKKKKKKKKKKKKKKKKKKKKKKKKKKKKKKKKKKKKKKKKKLLLLLLLLLLLLLLLLLLLLLLLLL",
"LLLLLLLLLLLLLLLLLLLLLLLLLLLLLLLLLLLKKKKKKKKKKKKKKKKKKKKKKKKKJGDCCccccccccccccVCCGGKKKKKKKKKKKKKKKKKKKKKKKKKLLLLLLLLLLLLLLLLLLLLL",
"LLLLLLLLLLLLLLLLLLLLLLLLLLLLLLKKKKKKKKKKKKKKKKKKKKKKKKJFCvlssssssssssssssssssssssssfcVZGKKKKKKKKKKKKKKKKKKKKKKKKLLLLLLLLLLLLLLLL",
"LLLLLLLLLLLLLLLLLLLLLLLLLKKKKKKKKKKKKKKKKKKKKKKKKKGCvfssssssssssssssssssssssssssssssssssslmDJKKKKKKKKKKKKKKKKKKKKKKKKLLLLLLLLLLL",
"LLLLLLLLLLLLLLLLLLKKKKKKKKKKKKKKKKKKKKKKKKKKKKGCcssssssssssssssssssssssssssssssssssssssssssssjmDJKKKKKKKKKKKKKKKKKKKKKKKKKKKKLLL",
"KKKKKKKKKKKKKKKKKKKKKKKKKKKKKKKKKKKKKKKKKKHZvsssssssssssssssssssssssssssssssssssssssssssssssssssslVGKKKKKKKKKKKKKKKKKKKKKKKKKKKK",
"KKKKKKKKKKKKKKKKKKKKKKKKKKKKKKKKKKKKKKJDmfssssssssssssssssssssssssssssssssssssssssssssssssssssssssssfmFKKKKKKKKKKKKKKKKKKKKKKKKK",
"KKKKKKKKKKKKKKKKKKKKKKKKKKKKKKKKKKJDmjsssssssssssssssssssssssssssssssssssssssssssssssssssssssssssssssssscCGKKKKKKKKKKKKKKKKKKKKK",
"KKKKKKKKKKKKKKKKKKKKKKKKKKKKKKHDmjsssssssssssssssssssssssssssssssssssssssssssssssssssssssssssssssssssssssssslVDHKKKKKKKKKKKKKKKK",
"KKKKKKKKKKKKKKKKKKKKKKKKKHDCcfssssssssssssssssssssssssssssssssssssssssssssssssssssssssssssssssssssssssssssssssssscmCGJKKKKKKKKKK",
"KKKKKKKKKKKKKKKKKKGGZCclssssssssssssssssssssssssssssssssssssssssssssssssssssssssssssssssssssssssssssssssssssssssssssssslcCCGGJKK",
"jccccccVmccccccsssssssssssssssssssssssssssssssssssssssssssssssssssssssssssssssssssssssssssssssssssssssssssssssssssssssssssssssss",
"ssssssssssssssssssssssssssssssssssssssssssssssssssssssssssssssssssssssssssssssssssssssssssssssssssssssssssssssssssssssssssssssss",
"ssssssssssssssssssssssssssssssssssssssssssssssssssssssssssssssssssssssssssssssssssssssssssssssssssssssssssssssssssssssssssssssss",
"ssssssssssssssssssssssssssssssssssssssssssssssssssssssssssssssssssssssssssssssssssssssssssssssssssssssssssssssssssssssssssssssss",
"ssssssssssssssssssssssssssssssssssssssssssssssssssssssssssssssssssssssssssssssssssssssssssssssssssssssssssssssssssssssssssssssss",
"ssssssssssssssssssssssssssssssssssssssssssssssssssssssssssssssssssssssssssssssssssssssssssssssssssssssssssssssssssssssssssssssss",
"ssssssssssssssssssssssssssssssssssssssssssssssssssssssssssssssssssssssssssssssssssssssssssssssssssssssssssssssssssssssssssssssss",
"ssssssssssssssssssssssssssssssssssssssssssssssssssssssssssssssssssssssssssssssssssssssssssssssssssssssssssssssssssssssssssssssss",
"ssssssssssssssssssssssssssssssssssssssssssssssssssssssssssssssssssssssssssssssssssssssssssssssssssssssssssssssssssssssssssssssss",
"ssssssssssssssssssssssssssssssssssssssssssssssssssssssssssssssssssssssssssssssssssssssssssssssssssssssssssssssssssssssssssssssss",
"ssssssssssssssssssssssssssssssssssssssssssssssssssssssssssssssssssssssssssssssssssssssssssssssssssssssssssssssssssssssssssssssss",
"ssssssssssssssssssssssssssssssssssssssssssssssssssssssssssssssssfkkkkkkkkkkkkdssssssssssssssssssssssssssssssssssssssssssssssssss",
"ssssssssssssssssssssssssssssssssssssssssssssssssssssssssjkvbNBSSSSSSSSSSSSSSSSSSBNmvzkdsssssssssssssssssssssssssssssssssssssssss",
"sssssssssssssssssssssssssssssssssssssssssssssssssssjzbNSSSSSSSSSSSSSSSSSSSSSSSSSSSSSSSSANbzjssssssssssssssssssssssssssssssssssss",
"sssssssssssssssssssssssssssssssssssssssssssssssjxMASSSSSSSSSSSSSSSSSSSSSSSSSSSSSSSSSSSSSSSSSSNblfsssssssssssssssssssssssssssssss",
"sssssssssssssssssssssssssssssssssssssssssssfxMASSSSSSSSSSSSSSSSSSSSSSSSSSSSSSSSSSSSSSSSSSSSSSSSSSZmzfsssssssssssssssssssssssssss",
"sssssssssssssssssssssssssssssssssssssssdlmZSSSSSSSSSSSSSSSSSSSSSSSSSSSSSSSSSSSSSSSSSSSSSSSSSSSSSSSSSSZbldsssssssssssssssssssssss",
"ssssssssssssssssssssssssssssssssssssjxNSSSSSSSSSSSSSSSSSSSgayywwq888888888888wwwyypanSSSSSSSSSSSSSSSSSSSSNxjssssssssssssssssssss",
"ssssssssssssssssssssssssssssssssfzmASSSSSSSSSSSSSSSSnaye088888888888888888888888888888wryanSSSSSSSSSSSSSSSSSAMxkssssssssssssssss",
"ssssssssssssssssssssssssssssjzmZSSSSSSSSSSSSSSSShir08888888888888888888888888888888888888880eyaSSSSSSSSSSSSSSSSSSNvlfsssssssssss",
"sssssssssssssssssssssssjzvNASSSSSSSSSSSSSSSShir0888888888888888888888888888888888888888888888888qtpnSSSSSSSSSSSSSSSSSANbxkdsssss",
"lkkfssssssssssdkklvbNBSSSSSSSSSSSSSSSSSSSatq88888888888888888888888888888888888888888888888888888888qtaSSSSSSSSSSSSSSSSSSSSSNNvv",
"SSSSSSSSSSSSSSSSSSSSSSSSSSSSSSSSSSSSShue8888888888888888888888888888888888888888888888888888888888888888euhSSSSSSSSSSSSSSSSSSSSS",
"SSSSSSSSSSSSSSSSSSSSSSSSSSSSSSSSSnpr088888888888888888888888888888888888888888888888888888888888888888888880rihSSSSSSSSSSSSSSSSS",
"SSSSSSSSSSSSSSSSSSSSSSSSSSSSSnptq8888888888888888888888888888888888888888888888888888888888888888888888888888889euaSSSSSSSSSSSSS",
"SSSSSSSSSSSSSSSSSSSSSSSSSaur0888888888888888888888888888888888888888888888888888888888888888888888888888888888888888qryahSSSSSSS",
"SSSSSSSSSSSSSSSSSSaayyw088888888888888888888888888888888888888888888888888888888888888888888888888888888888888888888888888weyuaa",
"888qwwwwwwwwwww88888888888888888888888888888888888888888888888888888888888888888888888888888888888888888888888888888888888888888",
"88888888888888888888888888888888888888888888888888888888888888888888888888888888888888888888888888888888888888888888888888888888",
"88888888888888888888888888888888888888888888888888888888888888888888888888888888888888888888888888888888888888888888888888888888",
"88888888888888888888888888888888888888888888888888888888888888888888888888888888888888888888888888888888888888888888888888888888",
"88888888888888888888888888888888888888888888888888888888888888888888888888888888888888888888888888888888888888888888888888888888",
"88888888888888888888888888888888888888888888888888888888888888888888888888888888888888888888888888888888888888888888888888888888",
"88888888888888888888888888888888888888888888888888888888888888888888888888888888888888888888888888888888888888888888888888888888",
"88888888888888888888888888888888888888888888888888888888888888888888888888888888888888888888888888888888888888888888888888888888",
"88888888888888888888888888888888888888888888888888888888888888888888888888888888888888888888888888888888888888888888888888888888",
"88888888888888888888888888888888888888888888888888888888888888888888888888888888888888888888888888888888888888888888888888888888",
"88888888888888888888888888888888888888888888888888888888888888888888888888888888888888888888888888888888888888888888888888888888",
"88888888888888888888888888888888888888888888888888888888888888888888888888888888888888888888888888888888888888888888888888888888",
"88888888888888888888888888888888888888888888888888888888888888888888888888888888888888888888888888888888888888888888888888888888",
"88888888888888888888888888888888888888888888888888888888888888888888888888888888888888888888888888888888888888888888888888888888",
"88888888888888888888888888888888888888888888888888888888888888888888888888888888888888888888888888888888888888888888888888888888",
"88888888888888888888888888888888888888888888888888888888888888888888888888888888888888888888888888888888888888888888888888888888",
"88888888888888888888888888888888888888888888888888888888888888888888888888888888888888888888888888888888888888888888888888888888",
"88888888888888888888888888888888888888888888888888888888888888888888888888888888888888888888888888888888888888888888888888888888",
"88888888888888888888888888888888888888888888888888888888888888888888888888888888888888888888888888888888888888888888888888888888",
"88888888888888888888888888888888888888888888888888888888888888887555555555555788888888888888888888888888888888888888888888888888",
"88888888888888888888888888888888888888888888888888888888641,>:------------------:>,135788888888888888888888888888888888888888888",
"88888888888888888888888888888888888888888888888888863<>--------------------------------;><36888888888888888888888888888888888888",
"8888888888888888888888888888888888888888888888862>;------------------------------------------><478888888888888888888888888888888",
"888888888888888888888888888888888888888888872>;--------------------------------------------------;,37888888888888888888888888888",
"88888888888888888888888888888888888888874,;----------------------------------------------------------;<4788888888888888888888888",
"88888888888888888888888888888888888862>------------------------------------------------------------------>2688888888888888888888",
"8888888888888888888888888888888873,;------------------------------------------------------------------------;>258888888888888888",
"888888888888888888888888888863,;--------------------------------------------------------------------------------->14788888888888",
"88888888888888888888888631>;-----------------------------------------------------------------------------------------;><25788888",
"4557888888888875541<>:------------------------------------------------------------------------------------------------------>>11",
"--------------------------------------------------------------------------------------------------------------------------------",
"--------------------------------------------------------------------------------------------------------------------------------",
"--------------------------------------------------------------------------------------------------------------------------------",
"--------------------------------------------------------------------------------------------------------------------------------",
"--------------------------------------------------------------------------------------------------------------------------------",
"--------------------------------------------------------------------------------------------------------------------------------",
"--------------------------------------------------------------------------------------------------------------------------------",
"--------------------------------------------------------------------------------------------------------------------------------",
"--------------------------------------------------------------------------------------------------------------------------------",
"--------------------------------------------------------------------------------------------------------------------------------",
"--------------------------------------------------------------------------------------------------------------------------------",
"--------------------------------------------------------------------------------------------------------------------------------",
"--------------------------------------------------------------------------------------------------------------------------------",
"--------------------------------------------------------------------------------------------------------------------------------",
"--------------------------------------------------------------------------------------------------------------------------------",
"--------------------------------------------------------------------------------------------------------------------------------",
"--------------------------------------------------------------------------------------------------------------------------------",
"--------------------------------------------------------------------------------------------------------------------------------",
"--------------------------------------------------------------------------------------------------------------------------------",
"----------------------------------------------------------------=************=--------------------------------------------------",
"--------------------------------------------------------*&#+oX                  Xo+#%*=-----------------------------------------",
"---------------------------------------------------*%@o                                .o@%*------------------------------------",
"-----------------------------------------------*$O.                                          o@&=-------------------------------",
"-------------------------------------------=$O.                                                  .+%=---------------------------",
"---------------------------------------=&+.                                                          .@&=-----------------------",
"------------------------------------*$o                                                                  o$*--------------------",
"--------------------------------=%+.                                                                        .O$*----------------",
"----------------------------*%+.                                                                                 o#&=-----------",
"-----------------------*%#o.                                                                                         .o@$*=-----",
"&**=----------=**&#@oX                                                                                                      oo##",
"                                                                                                                                ",
"                                                                                                                                ",
"                                                                                                                                ",
"                                                                                                                                ",
"                                                                                                                                ",
"                                                                                                                                ",
"                                                                                                                                ",
"                                                                                                                                ",
"                                                                                                                                ",
"                                                                                                                                ",
"                                                                                                                                ",
"                                                                                                                                ",
"                                                                                                                                ",
"                                                                                                                                ",
"                                                                                                                                ",
"                                                                                                                                ",
"                                                                                                                                ",
"                                                                                                                                ",
"                                                                                                                                ",
"                                                                                                                                ",
"                                                                                                                                ",
"                                                                                                                                ",
"                                                                                                                                ",
"                                                                                                                                ",
"                                                                                                                                "
};
