/* XPM */
static char *_970_23a5894f160857bea02edbd13aaa05a712ea0eb9b3ee44c31ea923830eff90f2[] = {
/* columns rows colors chars-per-pixel */
"128 128 69 1 ",
"  c #3CBFF0",
". c #3DC0F0",
"X c #3EC1F0",
"o c #3FC1F1",
"O c #3FC2F1",
"+ c #40C2F1",
"@ c #40C3F1",
"# c #41C4F1",
"$ c #42C4F1",
"% c #42C5F1",
"& c #43C5F1",
"* c #44C6F2",
"= c #45C7F2",
"- c #46C8F2",
"; c #47C9F2",
": c #48CAF2",
"> c #49CBF3",
", c #4ACCF3",
"< c #4BCCF3",
"1 c #4CCDF3",
"2 c #4CCEF3",
"3 c #4DCEF3",
"4 c #4ECFF3",
"5 c #4ED0F4",
"6 c #4FD0F4",
"7 c #50D1F4",
"8 c #51D2F4",
"9 c #55D4F4",
"0 c #5AD7F4",
"q c #5ED9F5",
"w c #63DBF5",
"e c #67DEF5",
"r c #6BE0F5",
"t c #70E2F5",
"y c #74E5F6",
"u c #78E7F6",
"i c #7DE9F6",
"p c #81EBF6",
"a c #86EEF6",
"s c #84F4F4",
"d c #85F4F4",
"f c #86F4F4",
"g c #8AF0F6",
"h c #8EF2F7",
"j c #88F5F5",
"k c #89F5F5",
"l c #8AF5F5",
"z c #8BF5F5",
"x c #8CF5F5",
"c c #8CF5F6",
"v c #8EF6F6",
"b c #8FF6F6",
"n c #93F5F7",
"m c #90F6F6",
"M c #91F6F6",
"N c #92F6F6",
"B c #93F6F6",
"V c #92F6F7",
"C c #94F7F7",
"Z c #95F7F7",
"A c #96F7F7",
"S c #97F7F7",
"D c #97F7F8",
"F c #99F7F8",
"G c #9BF8F9",
"H c #9DF8F9",
"J c #9FF8F9",
"K c #A3F9FA",
"L c None",
/* pixels */
"LLLLLKKKKKKKKKKKKKKKKKKKKKLLLLLLLLLLLLLLLLLLLLLLLLLLLLLLLLLLLLLLLLLLLLLLLLLLLLLLLLLLLLLLLLLLLLLLLLLLLLLLLLLLLLLLLLLLLLLLLLLLLLLL",
"KKKKKKKKKKKKKKKKKKKKKKKKKKKKKKKKLLLLLLLLLLLLLLLLLLLLLLLLLLLLLLLLLLLLLLLLLLLLLLLLLLLLLLLLLLLLLLLLLLLLLLLLLLLLLLLLLLLLLLLLLLLLLLLK",
"KKKKKKKKKKKKKKKKKKKKKKKKKKKKKKKKKKKKLLLLLLLLLLLLLLLLLLLLLLLLLLLLLLLLLLLLLLLLLLLLLLLLLLLLLLLLLLLLLLLLLLLLLLLLLLLLLLLLLLLLLLKKKKKK",
"KKKKKKKKKKKKKKKKKKKKKKKKKKKKKKKKKKKKKKKKLLLLLLLLLLLLLLLLLLLLLLLLLLLLLLLLLLLLLLLLLLLLLLLLLLLLLLLLLLLLLLLLLLLLLLLLLLLLLLKKKKKKKKKK",
"KKKKKKKKKKKKKKKKKKKKKKKKKKKKKKKKKKKKKKKKKKKKLLLLLLLLLLLLLLLLLLLLLLLLLLLLLLLLLLLLLLLLLLLLLLLLLLLLLLLLLLLLLLLLLLLLLLKKKKKKKKKKKKKK",
"KKKKKKKKKKKKKKKKKKKKKKKKKKKKKKKKKKKKKKKKKKKKKKKLLLLLLLLLLLLLLLLLLLLLLLLLLLLLLLLLLLLLLLLLLLLLLLLLLLLLLLLLLLLLLLLKKKKKKKKKKKKKKKKK",
"KKKKJGDCCccccccccccccVCCGGKKKKKKKKKKKKKKKKKKKKKKKKKLLLLLLLLLLLLLLLLLLLLLLLLLLLLLLLLLLLLLLLLLLLLLLLLLLLLLLLLKKKKKKKKKKKKKKKKKKKKK",
"CvlssssssssssssssssssssssssfcVZGKKKKKKKKKKKKKKKKKKKKKKKKLLLLLLLLLLLLLLLLLLLLLLLLLLLLLLLLLLLLLLLLLLLLLLKKKKKKKKKKKKKKKKKKKKKKKKJF",
"ssssssssssssssssssssssssssssssssslmDJKKKKKKKKKKKKKKKKKKKKKKKKLLLLLLLLLLLLLLLLLLLLLLLLLLLLLLLLLLLLKKKKKKKKKKKKKKKKKKKKKKKKKGCvfss",
"sssssssssssssssssssssssssssssssssssssjmDJKKKKKKKKKKKKKKKKKKKKKKKKKKKKLLLLLLLLLLLLLLLLLLLLLKKKKKKKKKKKKKKKKKKKKKKKKKKKKGCcsssssss",
"ssssssssssssssssssssssssssssssssssssssssslVGKKKKKKKKKKKKKKKKKKKKKKKKKKKKKKKKKKKKKKKKKKKKKKKKKKKKKKKKKKKKKKKKKKKKKKHZvsssssssssss",
"ssssssssssssssssssssssssssssssssssssssssssssfmFKKKKKKKKKKKKKKKKKKKKKKKKKKKKKKKKKKKKKKKKKKKKKKKKKKKKKKKKKKKKKKKJDmfssssssssssssss",
"sssssssssssssssssssssssssssssssssssssssssssssssscCGKKKKKKKKKKKKKKKKKKKKKKKKKKKKKKKKKKKKKKKKKKKKKKKKKKKKKKKJDmjssssssssssssssssss",
"sssssssssssssssssssssssssssssssssssssssssssssssssssslVDHKKKKKKKKKKKKKKKKKKKKKKKKKKKKKKKKKKKKKKKKKKKKKKHDmjssssssssssssssssssssss",
"ssssssssssssssssssssssssssssssssssssssssssssssssssssssssscmCGJKKKKKKKKKKKKKKKKKKKKKKKKKKKKKKKKKKKHDCcsssssssssssssssssssssssssss",
"ssssssssssssssssssssssssssssssssssssssssssssssssssssssssssssssslcCCGGJKKKKKKKKKKKKKKKKKKKKGGZCclssssssssssssssssssssssssssssssss",
"ssssssssssssssssssssssssssssssssssssssssssssssssssssssssssssssssssssssssjccccccccccccccsssssssssssssssssssssssssssssssssssssssss",
"ssssssssssssssssssssssssssssssssssssssssssssssssssssssssssssssssssssssssssssssssssssssssssssssssssssssssssssssssssssssssssssssss",
"ssssssssssssssssssssssssssssssssssssssssssssssssssssssssssssssssssssssssssssssssssssssssssssssssssssssssssssssssssssssssssssssss",
"ssssssssssssssssssssssssssssssssssssssssssssssssssssssssssssssssssssssssssssssssssssssssssssssssssssssssssssssssssssssssssssssss",
"ssssssssssssssssssssssssssssssssssssssssssssssssssssssssssssssssssssssssssssssssssssssssssssssssssssssssssssssssssssssssssssssss",
"ssssssssssssssssssssssssssssssssssssssssssssssssssssssssssssssssssssssssssssssssssssssssssssssssssssssssssssssssssssssssssssssss",
"ssssssssssssssssssssssssssssssssssssssssssssssssssssssssssssssssssssssssssssssssssssssssssssssssssssssssssssssssssssssssssssssss",
"ssssssssssssssssssssssssssssssssssssssssssssssssssssssssssssssssssssssssssssssssssssssssssssssssssssssssssssssssssssssssssssssss",
"ssssssssssssssssssssssssssssssssssssssssssssssssssssssssssssssssssssssssssssssssssssssssssssssssssssssssssssssssssssssssssssssss",
"ssssssssssssssssssssssssssssssssssssssssssssssssssssssssssssssssssssssssssssssssssssssssssssssssssssssssssssssssssssssssssssssss",
"ssssssssssssssssssssssssssssssssssssssssssssssssssssssssssssssssssssssssssssssssssssssssssssssssssssssssssssssssssssssssssssssss",
"ssssssssfkkkkkkkkkkkkdssssssssssssssssssssssssssssssssssssssssssssssssssssssssssssssssssssssssssssssssssssssssssssssssssssssssss",
"fkvbNBSSSSSSSSSSSSSSSSSSBNmvzkdsssssssssssssssssssssssssssssssssssssssssssssssssssssssssssssssssssssssssssssssssssssssssssssssss",
"SSSSSSSSSSSSSSSSSSSSSSSSSSSSSSSANbzjsssssssssssssssssssssssssssssssssssssssssssssssssssssssssssssssssssssssssssssssssssssssjzbNS",
"SSSSSSSSSSSSSSSSSSSSSSSSSSSSSSSSSSSSSNblfssssssssssssssssssssssssssssssssssssssssssssssssssssssssssssssssssssssssssssssjxMASSSSS",
"SSSSSSSSSSSSSSSSSSSSSSSSSSSSSSSSSSSSSSSSSZmzfssssssssssssssssssssssssssssssssssssssssssssssssssssssssssssssssssssssfxMASSSSSSSSS",
"SSSSSSSSSSSSSSSSSSSSSSSSSSSSSSSSSSSSSSSSSSSSSZbldssssssssssssssssssssssssssssssssssssssssssssssssssssssssssssssdlbZSSSSSSSSSSSSS",
"SSgayywwq888888888888wwwyypanSSSSSSSSSSSSSSSSSSSSNvjssssssssssssssssssssssssssssssssssssssssssssssssssssssssjxNSSSSSSSSSSSSSSSSS",
"q88888888888888888888888888888wryanSSSSSSSSSSSSSSSSSAMxkssssssssssssssssssssssssssssssssssssssssssssssssfzmASSSSSSSSSSSSSSSSnaye",
"888888888888888888888888888888888880eyaSSSSSSSSSSSSSSSSSSNblfsssssssssssssssssssssssssssssssssssssssjzmZSSSSSSSSSSSSSSSShir08888",
"8888888888888888888888888888888888888888qtpnSSSSSSSSSSSSSSSSSANbxkdssssssssssssssssssssssssssssjlvNASSSSSSSSSSSSSSSShir088888888",
"88888888888888888888888888888888888888888888qtaSSSSSSSSSSSSSSSSSSSSSNNvvlkkfssssssssssdkklvbNBSSSSSSSSSSSSSSSSSSSatq888888888888",
"888888888888888888888888888888888888888888888888euhSSSSSSSSSSSSSSSSSSSSSSSSSSSSSSSSSSSSSSSSSSSSSSSSSSSSSSSSSShue8888888888888888",
"8888888888888888888888888888888888888888888888888880rihSSSSSSSSSSSSSSSSSSSSSSSSSSSSSSSSSSSSSSSSSSSSSSSSSSnpr08888888888888888888",
"88888888888888888888888888888888888888888888888888888889eyaSSSSSSSSSSSSSSSSSSSSSSSSSSSSSSSSSSSSSSSSSSnptq88888888888888888888888",
"888888888888888888888888888888888888888888888888888888888888qryahSSSSSSSSSSSSSSSSSSSSSSSSSSSSSSSSaur0888888888888888888888888888",
"888888888888888888888888888888888888888888888888888888888888888888weyuaaSSSSSSSSSSSSSSSSSSaayyw088888888888888888888888888888888",
"888888888888888888888888888888888888888888888888888888888888888888888888888qwwwwwwwwwww88888888888888888888888888888888888888888",
"88888888888888888888888888888888888888888888888888888888888888888888888888888888888888888888888888888888888888888888888888888888",
"88888888888888888888888888888888888888888888888888888888888888888888888888888888888888888888888888888888888888888888888888888888",
"88888888888888888888888888888888888888888888888888888888888888888888888888888888888888888888888888888888888888888888888888888888",
"88888888888888888888888888888888888888888888888888888888888888888888888888888888888888888888888888888888888888888888888888888888",
"88888888888888888888888888888888888888888888888888888888888888888888888888888888888888888888888888888888888888888888888888888888",
"88888888888888888888888888888888888888888888888888888888888888888888888888888888888888888888888888888888888888888888888888888888",
"88888888888888888888888888888888888888888888888888888888888888888888888888888888888888888888888888888888888888888888888888888888",
"88888888888888888888888888888888888888888888888888888888888888888888888888888888888888888888888888888888888888888888888888888888",
"88888888888888888888888888888888888888888888888888888888888888888888888888888888888888888888888888888888888888888888888888888888",
"88888888888888888888888888888888888888888888888888888888888888888888888888888888888888888888888888888888888888888888888888888888",
"88888888888888888888888888888888888888888888888888888888888888888888888888888888888888888888888888888888888888888888888888888888",
"88888888888888888888888888888888888888888888888888888888888888888888888888888888888888888888888888888888888888888888888888888888",
"88888888888888888888888888888888888888888888888888888888888888888888888888888888888888888888888888888888888888888888888888888888",
"88888888888888888888888888888888888888888888888888888888888888888888888888888888888888888888888888888888888888888888888888888888",
"88888888888888888888888888888888888888888888888888888888888888888888888888888888888888888888888888888888888888888888888888888888",
"88888888888888888888888888888888888888888888888888888888888888888888888888888888888888888888888888888888888888888888888888888888",
"88888888888888888888888888888888888888888888888888888888888888888888888888888888888888888888888888888888888888888888888888888888",
"88888888888888888888888888888888888888888888888888888888888888888888888888888888888888888888888888888888888888888888888888888888",
"88888888755555555555578888888888888888888888888888888888888888888888888888888888888888888888888888888888888888888888888888888888",
"751<>:------------------:>,13578888888888888888888888888888888888888888888888888888888888888888888888888888888888888888888888888",
"-------------------------------;><3688888888888888888888888888888888888888888888888888888888888888888888888888888888888888863<>-",
"-------------------------------------><4788888888888888888888888888888888888888888888888888888888888888888888888888888862>;-----",
"-----------------------------------------;,37888888888888888888888888888888888888888888888888888888888888888888888872>;---------",
"---------------------------------------------;<478888888888888888888888888888888888888888888888888888888888888874<;-------------",
"------------------------------------------------->168888888888888888888888888888888888888888888888888888888862>-----------------",
"----------------------------------------------------;>2588888888888888888888888888888888888888888888888873,;--------------------",
"---------------------------------------------------------><4788888888888888888888888888888888888888863,;------------------------",
"-------------------------------------------------------------;><2578888888888888888888888888888631>;----------------------------",
"-------------------------------------------------------------------->>114557888888888875541<>;----------------------------------",
"--------------------------------------------------------------------------------------------------------------------------------",
"--------------------------------------------------------------------------------------------------------------------------------",
"--------------------------------------------------------------------------------------------------------------------------------",
"--------------------------------------------------------------------------------------------------------------------------------",
"--------------------------------------------------------------------------------------------------------------------------------",
"--------------------------------------------------------------------------------------------------------------------------------",
"--------------------------------------------------------------------------------------------------------------------------------",
"--------------------------------------------------------------------------------------------------------------------------------",
"--------------------------------------------------------------------------------------------------------------------------------",
"--------------------------------------------------------------------------------------------------------------------------------",
"--------------------------------------------------------------------------------------------------------------------------------",
"--------------------------------------------------------------------------------------------------------------------------------",
"--------------------------------------------------------------------------------------------------------------------------------",
"--------------------------------------------------------------------------------------------------------------------------------",
"--------------------------------------------------------------------------------------------------------------------------------",
"--------------------------------------------------------------------------------------------------------------------------------",
"--------------------------------------------------------------------------------------------------------------------------------",
"--------------------------------------------------------------------------------------------------------------------------------",
"--------------------------------------------------------------------------------------------------------------------------------",
"--------=************=----------------------------------------------------------------------------------------------------------",
"=*#@oX                  Xo+#%*=-------------------------------------------------------------------------------------------------",
"                               .o@%*---------------------------------------------------------------------------------------*%@o ",
"                                     o@&=------------------------------------------------------------------------------*$O.     ",
"                                         .+%=----------------------------------------------------------------------=$O.         ",
"                                             .@&=--------------------------------------------------------------=&@.             ",
"                                                 o#*--------------------------------------------------------*$o                 ",
"                                                    .O$*------------------------------------------------=%+.                    ",
"                                                         o@&=---------------------------------------*%+.                        ",
"                                                             .o@$*=----------------------------*%#o.                            ",
"                                                                    oo##&**=----------=**&#@o.                                  ",
"                                                                                                                                ",
"                                                                                                                                ",
"                                                                                                                                ",
"                                                                                                                                ",
"                                                                                                                                ",
"                                                                                                                                ",
"                                                                                                                                ",
"                                                                                                                                ",
"                                                                                                                                ",
"                                                                                                                                ",
"                                                                                                                                ",
"                                                                                                                                ",
"                                                                                                                                ",
"                                                                                                                                ",
"                                                                                                                                ",
"                                                                                                                                ",
"                                                                                                                                ",
"                                                                                                                                ",
"                                                                                                                                ",
"                                                                                                                                ",
"                                                                                                                                ",
"                                                                                                                                ",
"                                                                                                                                ",
"                                                                                                                                ",
"                                                                                                                                "
};
